<?xml version="1.0" standalone="no"?>
<!DOCTYPE svg PUBLIC "-//W3C//DTD SVG 20010904//EN"
 "http://www.w3.org/TR/2001/REC-SVG-20010904/DTD/svg10.dtd">
<svg version="1.0" xmlns="http://www.w3.org/2000/svg"
 width="120.000000pt" height="120.000000pt" viewBox="0 0 120.000000 120.000000"
 preserveAspectRatio="xMidYMid meet">
<metadata>
Created by potrace 1.14, written by Peter Selinger 2001-2017
</metadata>
<g transform="translate(0.000000,120.000000) scale(0.100000,-0.100000)"
fill="#000000" stroke="none">
<path d="M258 1115 c-2 -2 -46 -6 -98 -10 -52 -4 -104 -8 -115 -10 -11 -1 -26
-3 -33 -4 -7 0 -11 -4 -9 -8 3 -5 8 -48 12 -98 4 -49 9 -101 10 -115 1 -14 6
-63 11 -110 13 -136 10 -239 -12 -445 -3 -27 -7 -77 -9 -110 -3 -33 -5 -60 -5
-60 -1 0 -3 -8 -5 -17 -4 -20 16 -25 135 -35 108 -8 193 -8 300 1 111 9 203
10 320 0 148 -11 321 -6 432 15 4 0 5 10 3 22 -2 11 -7 57 -10 102 -3 45 -8
93 -10 107 -17 102 -22 306 -10 420 7 71 11 109 20 216 3 40 8 81 10 93 2 11
-2 22 -8 22 -7 1 -21 3 -32 4 -142 19 -256 22 -400 10 -126 -11 -185 -11 -305
-1 -115 10 -189 14 -192 11z"/>
</g>
</svg>
